#!OML:ASF F:\VICON\USERDATA\INSTALL\rory3\rory3.ASF
:FULLY-SPECIFIED
:DEGREES
115
root 13.619 17.9231 -2.71359 -1.69703 3.91138 5.33574
lowerback 11.7759 0.665628 -4.8392
upperback 1.18131 0.19697 -1.03525
thorax -5.38159 0.194009 1.61034
lowerneck -21.6749 -6.30259 -12.8623
upperneck 27.2108 -7.37585 9.40656
head 13.7211 -3.31208 4.5667
rclavicle 4.5472e-015 -7.95139e-016
rhumerus -34.4415 -10.4014 -82
rradius 33.1437
rwrist 5.13179
rhand -14.9095 9.30247
rfingers 7.12502
rthumb 11.252 -20.3757
lclavicle 4.5472e-015 -7.95139e-016
lhumerus -30.4931 5.43887 80.6099
lradius 36.019
lwrist -3.85432
lhand -19.3146 27.6133
lfingers 7.12502
lthumb 7.00143 57.4775
rfemur -23.8852 -4.56301 15.366
rtibia 58.7376
rfoot -8.66191 -6.80496
rtoes 11.9293
lfemur -1.85629 1.42954 -29.0974
ltibia 16.1296
lfoot -8.39542 -7.12615
ltoes -0.548526
116
root 13.6275 17.9029 -2.61372 -1.67455 3.99115 5.51773
lowerback 11.6368 0.627206 -5.01288
upperback 1.25691 0.132857 -1.08114
thorax -5.22054 0.16125 1.6711
lowerneck -21.7753 -6.29414 -12.8716
upperneck 27.1324 -7.36125 9.46959
head 13.7103 -3.29507 4.59344
rclavicle -1.26725e-015 1.82882e-014
rhumerus -34.4227 -10.4297 -81.9272
rradius 32.9382
rwrist 5.19366
rhand -14.8174 9.85948
rfingers 7.12502
rthumb 11.3408 -19.8139
lclavicle -1.26725e-015 1.82882e-014
lhumerus -29.922 5.22573 80.6388
lradius 35.9787
lwrist -3.81781
lhand -19.2692 27.6893
lfingers 7.12502
lthumb 7.04529 57.5521
rfemur -24.3626 -4.48886 15.2333
rtibia 57.099
rfoot -8.98181 -6.69183
rtoes 9.3275
lfemur -1.71643 1.44448 -29.3123
ltibia 16.5687
lfoot -9.25469 -7.2569
ltoes 0.78456
117
root 13.6343 17.8884 -2.5081 -1.6783 4.03427 5.5933
lowerback 11.6261 0.604378 -5.11803
upperback 1.22328 0.0880864 -1.08892
thorax -5.24728 0.142504 1.72908
lowerneck -21.8519 -6.29228 -12.8609
upperneck 27.1934 -7.36707 9.49939
head 13.7539 -3.29129 4.60457
rclavicle 4.53478e-015 2.20651e-014
rhumerus -34.6297 -10.5985 -81.752
rradius 32.7194
rwrist 5.39545
rhand -14.6367 10.5449
rfingers 7.12502
rthumb 11.5151 -19.1188
lclavicle 4.53478e-015 2.20651e-014
lhumerus -29.6156 4.91138 80.6784
lradius 36.0566
lwrist -3.66743
lhand -19.3237 27.6114
lfingers 7.12502
lthumb 6.99272 57.4759
rfemur -24.704 -4.38596 15.2134
rtibia 55.2733
rfoot -9.49211 -6.69391
rtoes 6.84763
lfemur -1.41761 1.49925 -29.3984
ltibia 16.8051
lfoot -10.0277 -7.1595
ltoes 1.0054
118
root 13.6399 17.8852 -2.4033 -1.66508 4.0349 5.44029
lowerback 11.5922 0.569488 -5.03102
upperback 1.13631 0.0553899 -1.02312
thorax -5.3179 0.128122 1.75423
lowerneck -21.7997 -6.26982 -12.8762
upperneck 27.2957 -7.36359 9.55863
head 13.7894 -3.28619 4.63693
rclavicle 3.8763e-015 1.98785e-016
rhumerus -34.8756 -10.7972 -81.6004
rradius 32.55
rwrist 5.45652
rhand -14.6418 10.993
rfingers 7.12502
rthumb 11.5102 -18.671
lclavicle 3.8763e-015 1.98785e-016
lhumerus -29.4689 4.57543 80.7012
lradius 36.1902
lwrist -3.42997
lhand -19.0835 28.9475
lfingers 7.12502
lthumb 7.22455 58.8042
rfemur -24.9578 -4.28161 15.4822
rtibia 53.3178
rfoot -9.91517 -6.98437
rtoes 5.21112
lfemur -1.04541 1.44237 -29.2368
ltibia 16.8319
lfoot -10.2938 -6.82645
ltoes 0.25069
119
root 13.6455 17.8862 -2.30076 -1.62878 4.09671 5.28871
lowerback 11.4663 0.515464 -4.94625
upperback 1.13755 0.00820678 -0.923139
thorax -5.24306 0.102422 1.81927
lowerneck -21.7478 -6.26504 -12.9202
upperneck 27.2457 -7.33029 9.51914
head 13.7528 -3.28251 4.63294
rclavicle 4.5472e-015 8.94531e-015
rhumerus -34.9635 -11.0644 -81.3544
rradius 32.3542
rwrist 5.69552
rhand -14.6523 10.897
rfingers 7.12502
rthumb 11.5001 -18.7675
lclavicle 4.5472e-015 8.94531e-015
lhumerus -29.0551 4.58123 80.7082
lradius 36.0705
lwrist -3.65428
lhand -18.6303 30.7827
lfingers 7.12502
lthumb 7.66203 60.6239
rfemur -25.1977 -4.24706 15.7345
rtibia 51.2549
rfoot -10.1128 -7.25037
rtoes 4.45412
lfemur -0.62893 1.41161 -29.0644
ltibia 16.673
lfoot -10.3844 -6.68246
ltoes -0.465505
120
root 13.6505 17.8838 -2.19681 -1.57159 4.21082 5.30284
lowerback 11.3511 0.439615 -4.99934
upperback 1.14385 -0.0897741 -0.891474
thorax -5.1653 0.0538597 1.89781
lowerneck -21.7276 -6.25326 -12.8929
upperneck 27.1903 -7.29818 9.44655
head 13.7155 -3.27527 4.60238
rclavicle -7.45443e-017 -4.77083e-015
rhumerus -34.9546 -11.451 -81.103
rradius 31.983
rwrist 6.081
rhand -14.5564 10.5512
rfingers 7.12502
rthumb 11.5926 -19.1082
lclavicle -7.45443e-017 -4.77083e-015
lhumerus -28.6233 4.57797 80.685
lradius 35.9435
lwrist -3.9198
lhand -18.507 30.7506
lfingers 7.12502
lthumb 7.78098 60.5875
rfemur -25.4478 -4.30656 15.7953
rtibia 49.1046
rfoot -9.8961 -7.37343
rtoes 3.80925
lfemur -0.182893 1.4062 -29.0625
ltibia 16.4253
lfoot -10.5998 -6.71109
ltoes -0.550113
121
root 13.6543 17.8803 -2.09235 -1.46789 4.32043 5.45528
lowerback 11.2677 0.374296 -5.21934
upperback 1.08396 -0.201451 -0.903551
thorax -5.1736 0.00466769 2.02603
lowerneck -21.6989 -6.22059 -12.8059
upperneck 27.1782 -7.26058 9.36775
head 13.6908 -3.26086 4.56199
rclavicle -1.2598e-014 -1.43125e-014
rhumerus -35.0977 -11.6803 -80.94
rradius 31.7243
rwrist 6.12435
rhand -14.5737 11.006
rfingers 7.12502
rthumb 11.5759 -18.6543
lclavicle -1.2598e-014 -1.43125e-014
lhumerus -28.3347 4.42972 80.6979
lradius 35.9082
lwrist -3.90298
lhand -18.439 29.9012
lfingers 7.12502
lthumb 7.84659 59.7355
rfemur -25.6863 -4.40645 15.7017
rtibia 46.8972
rfoot -9.51051 -7.23865
rtoes 3.7909
lfemur 0.26802 1.39792 -29.2152
ltibia 16.1089
lfoot -10.8226 -6.77111
ltoes -0.746579
122
root 13.6579 17.8748 -1.98828 -1.32791 4.35763 5.51452
lowerback 11.1733 0.354667 -5.33671
upperback 1.01223 -0.238162 -0.894808
thorax -5.19344 -0.00908574 2.10658
lowerneck -21.8076 -6.26984 -12.8121
upperneck 27.2783 -7.32834 9.3817
head 13.7669 -3.28743 4.55845
rclavicle -1.59028e-014 -2.5842e-015
rhumerus -35.2898 -11.9646 -80.7231
rradius 31.4991
rwrist 6.28878
rhand -14.5972 11.2552
rfingers 7.12502
rthumb 11.5532 -18.4064
lclavicle -1.59028e-014 -2.5842e-015
lhumerus -28.0153 4.21041 80.738
lradius 35.8395
lwrist -3.9048
lhand -18.2692 29.6228
lfingers 7.12502
lthumb 8.01049 59.451
rfemur -25.9446 -4.37094 15.711
rtibia 44.639
rfoot -9.17 -6.98474
rtoes 4.12223
lfemur 0.696992 1.36075 -29.2716
ltibia 15.7333
lfoot -10.8934 -6.81016
ltoes -0.473661
123
root 13.6623 17.8664 -1.88146 -1.29664 4.43941 5.60932
lowerback 11.1522 0.318303 -5.4112
upperback 0.994219 -0.297853 -0.948899
thorax -5.19617 -0.0369751 2.10078
lowerneck -21.9028 -6.30321 -12.7634
upperneck 27.3507 -7.40335 9.42524
head 13.8282 -3.30739 4.5555
rclavicle 5.64051e-015 7.55382e-015
rhumerus -35.3909 -12.4061 -80.534
rradius 31.176
rwrist 6.60511
rhand -14.6904 10.9281
rfingers 7.12502
rthumb 11.4633 -18.7385
lclavicle 5.64051e-015 7.55382e-015
lhumerus -27.7102 4.05042 80.6789
lradius 35.7828
lwrist -3.97995
lhand -18.6612 29.2079
lfingers 7.12502
lthumb 7.63217 59.0501
rfemur -26.0435 -4.41735 15.6792
rtibia 42.3657
rfoot -8.7347 -6.73262
rtoes 4.096
lfemur 1.29072 1.30433 -29.3613
ltibia 15.2969
lfoot -10.9075 -6.78903
ltoes -0.454377
124
root 13.6659 17.861 -1.7731 -1.25442 4.50088 5.65471
lowerback 11.0463 0.271798 -5.47035
upperback 1.01771 -0.35877 -0.952681
thorax -5.10731 -0.0683449 2.13894
lowerneck -22.0327 -6.29848 -12.7229
upperneck 27.3651 -7.38058 9.38048
head 13.8542 -3.29597 4.53388
rclavicle -1.54058e-014 3.97569e-016
rhumerus -35.49 -12.6382 -80.3814
rradius 31.014
rwrist 6.57933
rhand -14.7506 10.7954
rfingers 7.12502
rthumb 11.4053 -18.8744
lclavicle -1.54058e-014 3.97569e-016
lhumerus -27.2818 3.97237 80.6829
lradius 35.587
lwrist -3.98029
lhand -19.1354 28.6718
lfingers 7.12502
lthumb 7.17449 58.5302
rfemur -26.0949 -4.47854 15.6904
rtibia 40.0614
rfoot -8.18514 -6.31662
rtoes 5.47868
lfemur 1.8778 1.24474 -29.4065
ltibia 14.8713
lfoot -11.0056 -6.62556
ltoes -1.13761
125
root 13.6669 17.8635 -1.66686 -1.12535 4.48564 5.54925
lowerback 10.8963 0.245789 -5.48555
upperback 0.980838 -0.380498 -0.843512
thorax -5.05979 -0.0782509 2.26462
lowerneck -22.1444 -6.28346 -12.8509
upperneck 27.4223 -7.32618 9.46271
head 13.9047 -3.27302 4.60207
rclavicle 6.18717e-015 5.56597e-015
rhumerus -35.6512 -12.8967 -80.0796
rradius 30.8213
rwrist 6.61825
rhand -14.7388 10.9651
rfingers 7.12502
rthumb 11.4167 -18.7041
lclavicle 6.18717e-015 5.56597e-015
lhumerus -26.8382 4.08484 80.7338
lradius 35.311
lwrist -4.19592
lhand -18.507 29.1419
lfingers 7.12502
lthumb 7.78103 58.9787
rfemur -26.2805 -4.33406 15.8733
rtibia 37.7622
rfoot -7.38481 -5.85684
rtoes 6.94592
lfemur 2.36856 1.18879 -29.2788
ltibia 14.3705
lfoot -11.0287 -6.50834
ltoes -1.70815
